<?xml version="1.0" encoding="UTF-8" standalone="no"?>
<!DOCTYPE svg PUBLIC "-//W3C//DTD SVG 1.1//EN" "http://www.w3.org/Graphics/SVG/1.1/DTD/svg11.dtd">
<svg width="100%" height="100%" viewBox="0 0 1893 1507" version="1.1" xmlns="http://www.w3.org/2000/svg" xmlns:xlink="http://www.w3.org/1999/xlink" xml:space="preserve" style="fill-rule:evenodd;clip-rule:evenodd;stroke-linecap:round;stroke-linejoin:round;stroke-miterlimit:1.5;">
    <g transform="matrix(1,0,0,1,-737.39,-336.151)">
        <g>
            <path d="M1479.47,1408.63L1727.62,965.466L1725.95,624.808L1684.19,591.204L1789.03,336.651L1816.5,418.304L1784.03,599.036L1783.76,959.804L1919.09,1525.51L1692.22,1246.51L1479.47,1408.63Z" style="fill:white;stroke:black;stroke-width:1px;"/>
            <path d="M1908.7,1360.24L1977.15,967.229L2071.49,764.479L2058.05,966.454L2168.15,1198.12L2208.99,965.731L2293.47,966.454L2205.2,1474.81L2033.48,1123.32L1991.08,1360.45L1908.7,1360.24Z" style="fill:white;stroke:black;stroke-width:1px;"/>
            <path d="M737.89,1587.4L849.626,966.608L1041.46,965.161C1185.83,979.568 1143.85,1128.97 1089.04,1157.7C1168.84,1206.05 1135.6,1361.01 986.518,1362.98L890.066,1362.46L737.89,1587.4ZM876.113,1279.84L981.585,1280.56C1048.37,1283.89 1053.02,1206.87 1004.92,1198.22L934.206,1198.38L876.113,1279.84ZM912.11,1115.54L1002.34,1116.16C1059.47,1119.01 1063.45,1053.12 1022.31,1045.72L961.808,1045.86L912.11,1115.54Z" style="fill:white;stroke:black;stroke-width:1px;"/>
            <path d="M1207.22,1546.45L1157.1,1361.18L1227.59,965.941L1422.39,965.582C1565.67,974.121 1559.91,1185.31 1438.02,1216.39L1468.59,1360.79L1376.69,1361.95L1343.31,1223.06L1270.52,1222.88L1207.22,1546.45ZM1287.91,1137.94L1392.84,1139.63C1446.55,1140.52 1455.98,1058.57 1407.95,1048.04L1352.65,1048.03L1287.91,1137.94Z" style="fill:white;stroke:black;stroke-width:1px;"/>
            <path d="M2360.17,965.645L2291.22,1361.37L2484.68,1364.37L2483.77,1511.27L2586.59,1279.88L2395.06,1277.9L2440.44,1200.58L2508.78,1198.04L2522.21,1116.88L2431.33,1115.26L2469.33,1048.15L2616.91,1047.28L2629.24,966.682L2360.17,965.645Z" style="fill:white;stroke:black;stroke-width:1px;"/>
            <path d="M1197.08,1841.38L1269.38,1434.78L1498,1435.59L1485.92,1504.97L1363,1505.05L1326.02,1557.28L1453.71,1557.46L1442.58,1623.62L1313.57,1624.07L1300.74,1699.4L1197.08,1841.38Z" style="fill:white;stroke:black;stroke-width:1px;"/>
            <path d="M1473.49,1740.46L1527.4,1434.51L1618.61,1364.18L1552.63,1740.39L1473.49,1740.46Z" style="fill:white;stroke:black;stroke-width:1px;"/>
            <path d="M1690.92,1740.61L1632.84,1435.04L1714.66,1434.82L1746.71,1640.48L1833.98,1456.21L1888.66,1520.51L1774.37,1740.65L1690.92,1740.61Z" style="fill:white;stroke:black;stroke-width:1px;"/>
            <path d="M1887.83,1841.75L1958.87,1434.93L2163.88,1434.98L2180.9,1468.49L2174.22,1504.31L2052.72,1505L2017.15,1553.49L2150.69,1553.99L2139.36,1619.32L2033.64,1619.67L1996.91,1670.06L2146.65,1671.02L2135.09,1740.89L1961.67,1740.9L1887.83,1841.75Z" style="fill:white;stroke:black;stroke-width:1px;"/>
        </g>
    </g>
</svg>
